{"accessors" : [{"bufferView" : 0, "byteOffset" : 0, "componentType" : 5123, "count" : 1284, "type" : "SCALAR", "max" : [1280], "min" : [0]}, {"bufferView" : 1, "byteOffset" : 0, "componentType" : 5126, "count" : 1281, "type" : "VEC3", "max" : [-23.913610458374023, 382.7475280761719, 109.34485626220703], "min" : [-39.288726806640625, 358.352294921875, 95.8621826171875], "name" : "POSITION"}, {"bufferView" : 1, "byteOffset" : 12, "componentType" : 5126, "count" : 1281, "type" : "VEC2", "max" : [0.9924700260162354, -0.012388999573886395], "min" : [0.0047109997831285, -0.9947479963302612], "name" : "TEXCOORD_0"}, {"bufferView" : 1, "byteOffset" : 20, "componentType" : 5126, "count" : 1281, "type" : "VEC3", "max" : [0.994684636592865, 0.9999740719795227, 0.9954782128334045], "min" : [-0.9972851872444153, -0.9996169805526733, -0.996101438999176], "name" : "NORMAL"}], "asset" : {"generator" : "Aspose.3D 23.2", "version" : "2.0"}, "buffers" : [{"uri" : "data:application/octet-stream;base64,", "byteLength" : 43664}], "bufferViews" : [{"buffer" : 0, "byteOffset" : 0, "byteLength" : 2568, "target" : 34963}, {"buffer" : 0, "byteOffset" : 2572, "byteLength" : 41088, "byteStride" : 32, "target" : 34962}], "meshes" : [{"primitives" : [{"attributes" : {"POSITION" : 1, "TEXCOORD_0" : 2, "NORMAL" : 3}, "indices" : 0, "mode" : 4}], "name" : ""}], "nodes" : [{"mesh" : 0, "name" : "cat2:Plane group42"}], "scene" : 0, "scenes" : [{"nodes" : [0]}]}