{"accessors" : [{"bufferView" : 0, "byteOffset" : 0, "componentType" : 5123, "count" : 990, "type" : "SCALAR", "max" : [826], "min" : [0]}, {"bufferView" : 1, "byteOffset" : 0, "componentType" : 5126, "count" : 827, "type" : "VEC3", "max" : [6.344099998474121, 35.27579879760742, 30.8218994140625], "min" : [-6.344099998474121, -0, -31.0669002532959], "name" : "POSITION"}, {"bufferView" : 1, "byteOffset" : 12, "componentType" : 5126, "count" : 827, "type" : "VEC2", "max" : [0.9994999766349792, -0.0005000000237487257], "min" : [0.0005000000237487257, -0.9970999956130981], "name" : "TEXCOORD_0"}, {"bufferView" : 1, "byteOffset" : 20, "componentType" : 5126, "count" : 827, "type" : "VEC3", "max" : [0.9903505444526672, 0.9997707009315491, 1.0000044107437134], "min" : [-0.9696074724197388, -0.9997707009315491, -0.9657373428344727], "name" : "NORMAL"}], "asset" : {"generator" : "Aspose.3D 23.2", "version" : "2.0"}, "buffers" : [{"uri" : "data:application/octet-stream;base64,", "byteLength" : 33668}], "bufferViews" : [{"buffer" : 0, "byteOffset" : 0, "byteLength" : 1980, "target" : 34963}, {"buffer" : 0, "byteOffset" : 1984, "byteLength" : 31680, "byteStride" : 32, "target" : 34962}], "meshes" : [{"primitives" : [{"attributes" : {"POSITION" : 1, "TEXCOORD_0" : 2, "NORMAL" : 3}, "indices" : 0, "mode" : 4}], "name" : ""}], "nodes" : [{"mesh" : 0, "name" : "ORIGAMI_Chat"}], "scene" : 0, "scenes" : [{"nodes" : [0]}]}